# xmcd CD database file
#
# Track frame offsets:
#	187
#	17625
#	24750
#
# Disc length: 558 seconds
#
# Revision: 2
# Processed by: cddbd v1.5.2PL0 Copyright (c) Steve Scherf et al.
# Submitted via: CD2WAV32(JP) R3.22
#
DISCID=12022c03
DTITLE=種ともこ - LOVE SONG
DYEAR=1998
DGENRE=JPop
TTITLE0=LOVE SONG
TTITLE1=LOVE SONG (TV Version)
TTITLE2=LOVE SONG (Original Karaoke)
EXTD=
EXTT0=
EXTT1=
EXTT2=
PLAYORDER=
